<svg xmlns="http://www.w3.org/2000/svg" xmlns:xlink="http://www.w3.org/1999/xlink" viewBox="0,0,256,256" width="150px" height="150px" fill-rule="nonzero"><g fill="#ffffff" fill-rule="nonzero" stroke="none" stroke-width="1" stroke-linecap="butt" stroke-linejoin="miter" stroke-miterlimit="10" stroke-dasharray="" stroke-dashoffset="0" font-family="none" font-weight="none" font-size="none" text-anchor="none" style="mix-blend-mode: normal"><g transform="scale(5.12,5.12)"><path d="M2,2v24h22v22h24v-24h-22v-22zM4,4h20v20h-20zM7,8v12h4.69922c2.30078,0 4.30078,-0.60156 4.30078,-3.30078c0,-0.64453 -0.22656,-1.27344 -0.63672,-1.76172c-0.41797,-0.48437 -1.01953,-0.83594 -1.76562,-0.9375c0.92188,-0.45703 1.40234,-1.27344 1.40234,-2.80078c0,-1.80078 -1.46875,-3.19922 -3.26953,-3.19922zM9,10h2.35547c1.13281,0 1.60156,0.60156 1.60156,1.5c0,1.10156 -0.75391,1.5 -1.60156,1.5h-2.35547zM17,12v8h2v-3.80078c0,-1.69922 0.80078,-2.19922 2,-2.19922v-2c-1,0 -1.60156,0.40234 -2,1.30078v-1.30078zM9,15h2.71875c1.16016,0 1.9375,0.38672 1.9375,1.54688c0,1.06641 -0.67969,1.45313 -1.9375,1.45313h-2.71875zM26,26h20v20h-20zM28,30v12h4.69922c2.30078,0 4.30078,-0.60156 4.30078,-3.30078c0,-0.64453 -0.22656,-1.27344 -0.63672,-1.76172c-0.41797,-0.48437 -1.01953,-0.83594 -1.76562,-0.9375c0.92188,-0.45703 1.40234,-1.27344 1.40234,-2.80078c0,-1.80078 -1.46875,-3.19922 -3.26953,-3.19922zM30,32h2.35547c1.13281,0 1.60156,0.60156 1.60156,1.5c0,1.10156 -0.75391,1.5 -1.60156,1.5h-2.35547zM41,34c-1.26172,0 -2.42969,0.57422 -2.65234,2h1.56641c0.14844,-0.34375 0.47266,-0.5 1.08594,-0.5c0.69922,0 1.3125,0.3125 1.3125,0.80078v0.19922c-0.40234,0.19922 -2.30078,0.69922 -2.30078,0.69922c-0.90234,0.19922 -2.01172,0.89844 -2.01172,2.39844c0,1.5 1.10938,2.40234 2.3125,2.40234c0.79688,0 1.49609,-0.30078 2.09766,-0.90234c0,0.20313 -0.00781,0.65234 -0.00781,0.90234h1.59766v-6c0,-1.48047 -1.60156,-2 -3,-2zM30,37h2.71875c1.16016,0 1.9375,0.38672 1.9375,1.54688c0,1.06641 -0.67969,1.45313 -1.9375,1.45313h-2.71875zM42,38.20313v1.01563c0,0.89844 -0.66406,1.23438 -1.22656,1.23438c-0.44922,0 -1.02344,-0.33594 -1.02344,-0.89844c0,-0.5625 0.58203,-0.84766 1.04688,-1.03906c0,0 1.08984,-0.42578 1.20313,-0.3125z"></path></g></g></svg>